<svg width="48" height="48" viewBox="0 0 24 24" fill="none" xmlns="http://www.w3.org/2000/svg">
  <path 
    d="M12 21C11.7 21 11.4 20.9 11.2 20.7L4.2 13.6C2 11.4 2 7.8 4.2 5.6C5.3 4.5 6.7 4 8.1 4C9.5 4 10.8 4.5 11.8 5.5L12 5.7L12.2 5.5C13.2 4.5 14.5 4 15.9 4C17.3 4 18.7 4.5 19.8 5.6C22 7.8 22 11.4 19.8 13.6L12.8 20.7C12.6 20.9 12.3 21 12 21Z" 
    fill="url(#modernRed)"
  />
  <defs>
    <linearGradient id="modernRed" x1="0" y1="0" x2="1" y2="1">
      <stop offset="0%" stop-color="#ff6b6b"/>
      <stop offset="100%" stop-color="#c0392b"/>
    </linearGradient>
  </defs>
</svg>
