<svg width="48" height="48" viewBox="0 0 64 64" xmlns="http://www.w3.org/2000/svg">
  <defs>
    <linearGradient id="paper" x1="0" y1="0" x2="1" y2="1">
      <stop offset="0%" stop-color="#fdfaf5"/>
      <stop offset="100%" stop-color="#f0ebe4"/>
    </linearGradient>
    <linearGradient id="accent" x1="0" y1="0" x2="1" y2="1">
      <stop offset="0%" stop-color="#bfae99"/>
      <stop offset="100%" stop-color="#8a7e71"/>
    </linearGradient>
  </defs>
  
  <!-- Papel com canto dobrado -->
  <path d="M10 8h36l8 8v40a4 4 0 0 1-4 4H14a4 4 0 0 1-4-4V12a4 4 0 0 1 4-4z" fill="url(#paper)" stroke="#3a3a3a" stroke-width="1.5"/>
  <path d="M46 8v8h8" fill="url(#accent)" stroke="#3a3a3a" stroke-width="1"/>

  <!-- Linhas como texto ou partitura -->
  <rect x="18" y="22" width="28" height="3" rx="1.5" fill="#7a6e65"/>
  <rect x="18" y="30" width="24" height="3" rx="1.5" fill="#7a6e65"/>
  <rect x="18" y="38" width="20" height="3" rx="1.5" fill="#7a6e65"/>

  <!-- Detalhe: pena/caneta estilizada -->
  <path d="M20 50c4-2 10-4 14-6l4 4c-4 3-8 5-12 6-2 1-4-1-6-4z" fill="url(#accent)" stroke="#3a3a3a" stroke-width="0.5"/>

</svg>
